<?xml version="1.0" standalone="no"?>
<!DOCTYPE svg PUBLIC "-//W3C//DTD SVG 20010904//EN"
 "http://www.w3.org/TR/2001/REC-SVG-20010904/DTD/svg10.dtd">
<svg version="1.0" xmlns="http://www.w3.org/2000/svg"
 width="300.000000pt" height="329.000000pt" viewBox="0 0 300.000000 329.000000"
 preserveAspectRatio="xMidYMid meet">
<metadata>
Created by potrace 1.10, written by Peter Selinger 2001-2011
</metadata>
<g transform="translate(0.000000,329.000000) scale(0.100000,-0.100000)"
fill="#000000" stroke="none">
<path d="M1527 3038 c-9 -317 -9 -640 1 -654 4 -6 117 -77 252 -156 135 -80
324 -192 420 -250 l175 -104 3 -547 2 -546 96 -57 c72 -42 100 -54 114 -48 10
5 104 63 209 129 l191 120 0 750 0 750 -168 99 c-612 362 -1281 756 -1285 756
-2 0 -7 -109 -10 -242z"/>
<path d="M700 2550 c-278 -176 -506 -325 -508 -332 -1 -7 42 -39 95 -70 54
-31 208 -122 343 -202 135 -80 252 -146 261 -146 13 0 159 89 412 253 l77 50
-2 340 -3 340 -70 43 c-38 24 -77 43 -85 43 -8 0 -242 -143 -520 -319z"/>
<path d="M10 1682 l0 -410 233 -138 c534 -317 701 -414 707 -412 4 2 102 64
219 138 l211 135 -2 145 -3 145 -135 81 c-321 193 -1201 715 -1215 720 -13 5
-15 -40 -15 -404z"/>
<path d="M1875 1486 l-340 -213 -3 -627 c-1 -410 1 -626 8 -626 5 0 161 95
345 211 l335 211 0 629 c0 346 -1 629 -3 629 -1 0 -155 -96 -342 -214z"/>
</g>
</svg>
